# xmcd
#
# Track frame offsets: 
#        150
#        11406
#        24460
#        38398
#        50155
#        74270
#        87865
#        100846
#        112142
#        123360
#        138045
#        149704
#        163275
#        175998
#        189676
#        203675
#        217037
#        232679
#        247260
#        258291
#
# Disc length: 3727 seconds
#
# Revision: 1
# Processed by: cddbd v1.5.2PL0 Copyright (c) Steve Scherf et al.
# Submitted via: ExactAudioCopyFreeDBPlugin 1.0
#
DISCID=200e8d14
DTITLE=House of Blues - Essential Blues
DYEAR=2003
DGENRE=Blues
TTITLE0=Robert Johnson - Walkin Blues
TTITLE1=Mississippi John Hurt - Im Satisfied
TTITLE2=John Lee Hooker - Boogie Chillen'
TTITLE3=Jimmy Reed - Bright Lights, Big City
TTITLE4=Mahalia Jackson - How I Got Over
TTITLE5=Guitar Slim - The Things That I Used To Do
TTITLE6=Clifton Chenier - My Soul
TTITLE7=Fats Domino - Please Dont Leave Me
TTITLE8=Memphis Minnie - Kissing In The Dark
TTITLE9=B.B. King - Aint That Just Like A Woman
TTITLE10=Albert King - Crosscut Saw
TTITLE11=Al Green - Driving Wheel
TTITLE12=Sonny Boy Williamson - One Way Out
TTITLE13=Elmore James - Standing At The Crossroads
TTITLE14=Howlin' Wolf - Three Hundred Pounds Of Joy
TTITLE15=Muddy Waters - Mannish Boy
TTITLE16=Etta James - Born Under A Bad Sign
TTITLE17=Bonnie Raitt - Love Me Like A Man
TTITLE18=Steveie Ray Vaughan - The House Is Rockin'
TTITLE19=R.L. Burnside - Its Bad You Know
EXTD=YEAR: 2003
EXTT0=
EXTT1=
EXTT2=
EXTT3=
EXTT4=
EXTT5=
EXTT6=
EXTT7=
EXTT8=
EXTT9=
EXTT10=
EXTT11=
EXTT12=
EXTT13=
EXTT14=
EXTT15=
EXTT16=
EXTT17=
EXTT18=
EXTT19=
PLAYORDER=
